#N canvas 512 341 450 300 12;
#X obj -0.45 0.4 oscdsp;
#X obj 0.0 0.2 *~;
#X obj 0.20 0.0 fftinverse 1 4;
#X obj 0.15 -0.2 echo 1 2 3 4;
#X obj 0.10 -0.4 echo 1;
#X floatatom 0.228 0.40 50.0 0 0 0 - - - 0;
#X floatatom 0.128 0.10 50.0 0 0 0 - - - 0;
#X connect 0 0 1 0;
#X connect 1 0 2 1;
#X connect 2 0 3 2;
#X connect 5 0 2 2;
