#N canvas 512 341 450 300 12;
#X obj -0.45 0.1 HelloWorld_0;
#X obj 0.3 0.2 1*~;
#X obj 0.20 0.3 HelloWorld_3 1;
#X obj 0.15 0.05 endWorld_4 1;
#X connect 0 0 1 0;
#X connect 0 0 1 1;
#X connect 1 0 2 0;
#X connect 1 1 2 1;