#N canvas 512 341 450 300 12;
#X obj -0.45 0.4 sueb_;
#X obj 0.0 0.2 add_ 1 2;
#X floatatom 0.228 0.40 50.0 0 0 0 - - - 0;
#X floatatom 0.445 0.40 25.0 0 0 0 - - - 0;
#X floatatom 0.445 0.60 35.0 0 0 0 - - - 0;
#X connect 0 0 1 0;
#X connect 2 0 1 1;
#X connect 3 0 1 2;
#X connect 4 0 3 0;